# xmcd CD database file generated by OrangeCD 6.2
#
# Track frame offsets:
#	150
#	17189
#	33229
#	44573
#	60341
#	76212
#	91388
#	110693
#	125147
#	136989
#
# Disc length: 2048 seconds
#
# Revision: 0
# Processed by: cddbd v1.5.2PL0 Copyright (c) Steve Scherf et al.
# Submitted via: OrangeCD 6.2
#
DISCID=8307fe0a
DTITLE=Glen Campbell - Meet Glen Campbell
DYEAR=2008
DGENRE=
TTITLE0=Sing
TTITLE1=Walls
TTITLE2=Angel Dream
TTITLE3=Times Like These
TTITLE4=These Days
TTITLE5=Sadly, Beautiful
TTITLE6=All I Want Is You
TTITLE7=Jesus
TTITLE8=Good Riddance(Time Of Your Life)
TTITLE9=Grow Old With Me
EXTD=
EXTT0=
EXTT1=
EXTT2=
EXTT3=
EXTT4=
EXTT5=
EXTT6=
EXTT7=
EXTT8=
EXTT9=
PLAYORDER=
